<?xml version="1.0" standalone="no"?><!DOCTYPE svg PUBLIC "-//W3C//DTD SVG 1.1//EN" "http://www.w3.org/Graphics/SVG/1.1/DTD/svg11.dtd"><svg class="icon" width="200px" height="200.00px" viewBox="0 0 1024 1024" version="1.1" xmlns="http://www.w3.org/2000/svg"><path fill="#333333" d="M897.141754 252.05055l-89.37454-65.322751 44.594661-57.271378 87.475284 66.169025L897.141754 252.05055zM579.633377 671.692049l-100.606349 36.150338 2.51938-102.175077 295.851125-379.919822 89.911776 65.735144L579.633377 671.692049zM989.05614 170.912601 862.581634 75.240635l-19.138896-14.493086-14.803147 18.993586L437.984263 581.429279l-5.037736 6.482645-0.206708 8.237615-3.613294 146.501632-0.88823 36.06745 33.610492-12.078083 141.070946-50.685379 6.854105-2.456958 4.418636-5.843078L993.866702 205.845205l15.071254-19.922748L989.05614 170.912601zM944.503435 461.272665l0 499.933173L140.563386 961.205838c-67.573002 0-122.635061-55.494918-122.635061-123.83233L17.928325 225.479381l579.026556 0c13.543458 0 24.526603 11.106965 24.526603 24.795732 0 13.687744-10.983145 24.794709-24.526603 24.794709L66.962088 275.069823l0 562.282197c0 40.898479 33.053814 74.220399 73.580832 74.220399l754.906286 0L895.449205 461.252199c0-13.687744 10.962679-24.795732 24.526603-24.795732C933.519266 436.456467 944.503435 447.563432 944.503435 461.272665z" /></svg>