<?xml version="1.0" standalone="no"?><!DOCTYPE svg PUBLIC "-//W3C//DTD SVG 1.1//EN" "http://www.w3.org/Graphics/SVG/1.1/DTD/svg11.dtd"><svg class="icon" width="200px" height="200.00px" viewBox="0 0 1024 1024" version="1.1" xmlns="http://www.w3.org/2000/svg"><path fill="#333333" d="M428.439374 559.78533c66.720587-25.926486 114.194832-90.667999 114.194832-166.450986 0-98.546434-80.141248-178.698938-178.686658-178.698938-98.547457 0-178.687682 80.152505-178.687682 178.698938 0 75.78401 47.473221 140.5245 114.193809 166.450986-111.124913 28.774347-193.553251 129.59559-193.553251 249.579265l35.593659 0c0-122.680087 99.784634-222.464721 222.453465-222.464721 122.666784 0 222.453465 99.785657 222.453465 222.464721l35.591613 0C621.991602 689.38092 539.563264 588.5607 428.439374 559.78533zM220.840222 393.334343c0-78.914304 64.204277-143.107325 143.107325-143.107325 78.901001 0 143.105279 64.191998 143.105279 143.107325 0 78.889745-64.204277 143.100162-143.105279 143.100162C285.0445 536.434505 220.840222 472.224088 220.840222 393.334343zM871.31197 814.250882 711.281207 814.250882l0-32.379455 160.030763 0c7.943926 0 14.407128-6.476505 14.407128-14.420431L885.719098 256.535701c0-7.944949-6.463202-14.408151-14.407128-14.408151L495.388159 242.12755l0-32.379455 375.922788 0c25.807782 0 46.787606 20.980847 46.787606 46.787606l0 510.916319C918.098553 793.259802 897.11873 814.250882 871.31197 814.250882zM571.570235 316.780807l252.858962 0 0 36.868699-252.858962 0 0-36.868699ZM571.570235 431.936523l252.858962 0 0 36.880979-252.858962 0 0-36.880979ZM638.108674 554.706661l186.319499 0 0 36.887119-186.319499 0 0-36.887119Z" /></svg>