<?xml version="1.0" standalone="no"?><!DOCTYPE svg PUBLIC "-//W3C//DTD SVG 1.1//EN" "http://www.w3.org/Graphics/SVG/1.1/DTD/svg11.dtd"><svg class="icon" width="200px" height="200.00px" viewBox="0 0 1024 1024" version="1.1" xmlns="http://www.w3.org/2000/svg"><path fill="#ffffff" d="M868 681.3l-109.4-196c3.1-16.9 3.1-33.5 3.1-49.7 0-34.5-6.7-68.2-19.8-100.1-12.7-30.8-30.7-58.5-53.7-82.4-23-24-49.7-42.8-79.3-56-30.8-13.7-63.3-20.7-96.7-20.7s-65.9 7-96.7 20.7c-29.6 13.2-56.3 32.1-79.3 56s-41.1 51.7-53.7 82.4c-13.1 31.9-19.8 65.6-19.8 100.1 0 16.9 0 34.3 3.6 52L156.4 681.3c-5.7 9.2-5.9 20.6-0.5 30.6 6.3 11.6 19 19 32.4 19h0.5l108.9-8.4 48.6 101.2 0.4 0.6c6.3 9.8 17.3 15.6 29.5 15.6s23.3-5.8 29.5-15.6l0.2-0.4L479.4 688c11.3 2.4 22.2 2.4 32.8 2.4 7.5 0 14.6-1.2 21.5-2.4 3.6-0.6 7.1-1.2 10.5-1.6l74 136.9c6 12.4 17.6 20 30.1 20 12.6 0 24.2-7.8 30.3-20.3l48.3-100.5 107.5 8.3c2.1 0.5 4.2 0.7 6.3 0.7 11.1 0 21.6-6.6 27.4-17.3 5.8-10.8 5.8-23.4-0.1-32.9z m-193.9-8.1L645 737l-34-61.9c48.7-22.7 88.2-61 113.7-109.9l51.3 91.1-69.3-3.4h-0.3c-13.8 0-26.3 7.8-32.3 20.3z m-356.2-15.8h-0.3l-69.3 3.4 51.7-91.7c25.4 45.7 64.9 83.9 113.7 109.9l-34.3 62.5-29.1-63.8c-6-12.5-18.5-20.3-32.4-20.3z m194.3-412.1c48.9 0 94.7 19.6 129 55.3 34.4 35.8 53.3 83.7 53.3 135s-18.9 99.2-53.3 135c-34.3 35.7-80.1 55.3-129 55.3-48.9 0-94.7-19.6-129-55.3-34.4-35.8-53.3-83.7-53.3-135s18.9-99.2 53.3-135c34.3-35.6 80.1-55.3 129-55.3z" /></svg>