<?xml version="1.0" standalone="no"?><!DOCTYPE svg PUBLIC "-//W3C//DTD SVG 1.1//EN" "http://www.w3.org/Graphics/SVG/1.1/DTD/svg11.dtd"><svg class="icon" width="200px" height="200.00px" viewBox="0 0 1024 1024" version="1.1" xmlns="http://www.w3.org/2000/svg"><path fill="#333333" d="M512 942.08c-81.92 0-164.352-73.728-231.936-207.36C225.792 627.2 189.44 494.592 189.44 404.48c0-177.664 144.896-322.56 322.56-322.56s322.56 144.896 322.56 322.56c0 90.112-36.352 222.72-90.624 330.24C676.352 868.352 593.92 942.08 512 942.08z m0-819.2c-155.136 0-281.6 126.464-281.6 281.6 0 82.944 35.328 210.944 86.528 311.808C375.808 833.536 446.976 901.12 512 901.12c65.024 0 136.192-67.584 195.072-184.832 51.2-100.864 86.528-228.864 86.528-311.808 0-155.136-126.464-281.6-281.6-281.6zM512 532.48c-70.656 0-128-57.344-128-128s57.344-128 128-128 128 57.344 128 128-57.344 128-128 128z m0-229.888C455.68 302.592 410.112 348.16 410.112 404.48S455.68 506.368 512 506.368c56.32 0 101.888-45.568 101.888-101.888S568.32 302.592 512 302.592z" /></svg>