<?xml version="1.0" standalone="no"?><!DOCTYPE svg PUBLIC "-//W3C//DTD SVG 1.1//EN" "http://www.w3.org/Graphics/SVG/1.1/DTD/svg11.dtd"><svg class="icon" width="200px" height="200.00px" viewBox="0 0 1024 1024" version="1.1" xmlns="http://www.w3.org/2000/svg"><path fill="#ffffff" d="M640 256c-164.650667 0-298.666667 133.973333-298.666667 298.666667s134.016 298.666667 298.666667 298.666666 298.666667-133.973333 298.666667-298.666666-134.016-298.666667-298.666667-298.666667z m0 512c-117.632 0-213.333333-95.701333-213.333333-213.333333s95.701333-213.333333 213.333333-213.333334 213.333333 95.701333 213.333333 213.333334-95.701333 213.333333-213.333333 213.333333zM597.333333 426.666667h85.333334v170.666666h-85.333334z m-85.333333-341.333334h256v85.333334h-256zM128 341.333333h170.666667v85.333334H128z m0 341.333334h170.666667v85.333333H128z m-42.666667-170.666667h170.24v85.333333H85.333333z m823.168-225.834667l-85.333333-85.333333 60.330667-60.330667 85.333333 85.333334z" /></svg>