<?xml version="1.0" standalone="no"?><!DOCTYPE svg PUBLIC "-//W3C//DTD SVG 1.1//EN" "http://www.w3.org/Graphics/SVG/1.1/DTD/svg11.dtd"><svg class="icon" width="200px" height="200.00px" viewBox="0 0 1024 1024" version="1.1" xmlns="http://www.w3.org/2000/svg"><path fill="#ffffff" d="M513.92825434 595.03581638c14.97232781 0 27.1089875-12.13665967 27.10898749-27.10898749v-252.94159878c0-14.97232781-12.13665967-27.1089875-27.10898749-27.1089875s-27.1089875 12.13665967-27.1089875 27.1089875v225.94603799H315.09120382c-14.97232781 0-27.1089875 12.13665967-27.10898749 27.10898751s12.13665967 27.1089875 27.10898749 27.10898748h198.83705052z"  /><path fill="#ffffff" d="M723.76769726 868.734506c-61.59071217 41.74103513-133.61668311 63.74581997-208.36489547 63.74581995-205.07552046 0-372.03966099-166.85071381-372.039661-372.03966098 0-73.72737183 21.55107792-144.95935572 62.1578458-205.98293425 8.280151-12.47693982 4.99077593-29.26409528-7.4861639-37.54424627-12.47693982-8.280151-29.26409528-4.99077593-37.54424629 7.48616391-46.61838436 69.98428989-71.23198387 151.65153255-71.23198386 236.04101661 0 235.02017608 191.23745989 426.25763596 426.25763597 426.25763596 85.63717806 0 168.21183451-25.29415987 238.76325803-73.04681148 12.36351312-8.39357772 15.65288818-25.29415987 7.25931046-37.65767301-8.50700444-12.47693982-25.4075866-15.65288818-37.77109974-7.25931044zM550.11137989 135.77100316V98.11333015h72.25282442c19.96310377 0 36.18312558-16.2200218 36.18312556-36.18312553s-16.2200218-36.18312558-36.18312556-36.18312558H405.49230438c-19.96310377 0-36.18312558 16.2200218-36.18312556 36.18312558s16.2200218 36.18312558 36.18312556 36.18312553h72.25282439v37.88452646c-77.24360034 6.69217682-150.40383855 33.91459106-213.46909815 80.07926851-12.13665967 8.84728461-14.74547439 25.74786678-5.89818976 37.88452647 8.84728461 12.02323295 25.74786678 14.74547439 37.88452646 5.89818972 63.9726734-46.61838436 139.74172631-71.3454106 219.14043447-71.34541059 205.07552046 0 372.03966099 166.85071381 372.03966096 372.03966097 0 79.39870814-24.72702623 155.16776105-71.34541057 219.14043446-8.84728461 12.13665967-6.23846992 29.03724183 5.89818972 37.88452646 4.7639225 3.51622851 10.43525879 5.21762938 15.99316837 5.2176294 8.39357772 0 16.56030199-3.85650868 21.89135809-11.11581914 53.53741463-73.27366494 81.78066938-160.04511027 81.78066938-251.12677118 0-223.45065005-172.74890355-407.08851929-391.54905785-424.78308853z"  /></svg>